<svg width="72" height="72" viewBox="0 0 72 72" fill="none" xmlns="http://www.w3.org/2000/svg">
<path d="M47.7154 45.7471L36.4082 39.2189L46.3914 20.2954C47.6984 18.0318 50.593 17.2561 52.8568 18.5631L57.521 21.2559C59.7847 22.5629 60.5604 25.4575 59.2534 27.7213L47.7154 45.7471Z" fill="#E8AD99"/>
<path d="M17.9695 20.0891C18.1619 15.9219 16.876 14.8122 16.6692 14.6611C14.9409 13.9759 14.0038 12.0659 14.5612 10.2583C15.1476 8.35905 17.1619 7.29621 19.0592 7.88233C19.7338 8.08905 25.4548 10.1538 25.1708 19.9884L17.9695 20.0891Z" fill="#C4EB0C"/>
<path d="M41.5607 35.2405C41.5607 46.3609 32.469 55.3573 21.3127 55.2026C10.4784 55.0514 1.67075 46.1469 1.63293 35.3107C1.61675 30.4401 3.34334 25.9744 6.22643 22.4996C8.4566 19.8144 12.0501 18.7245 15.4295 19.593C16.2496 19.8052 17.0986 19.9724 17.9709 20.0894C19.0284 20.2369 20.1202 20.3123 21.237 20.3123C22.5912 20.3123 23.9096 20.2008 25.1722 19.9885C25.9995 19.8499 26.8035 19.6701 27.5788 19.4489C30.8576 18.5171 34.4114 19.5586 36.6506 22.1288C39.7081 25.6362 41.5607 30.2224 41.5607 35.2405Z" fill="#DFFB5B"/>
<path d="M54.0852 37.9219C47.9765 43.8334 41.0411 43.5563 36.0177 42.0969C33.5517 41.3804 31.3205 40.0525 29.3856 38.3637C27.253 36.5024 24.4649 35.374 21.4116 35.374C14.7069 35.374 9.27148 40.8095 9.27148 47.5142C9.27148 53.8546 15.2636 59.0566 21.3517 60.3438C31.5079 62.4908 44.1333 63.701 60.9197 47.7541L54.0852 37.9219Z" fill="#ADB5F7"/>
<path d="M62.1259 49.4885C58.2607 47.9396 59.7589 46.2308 57.3921 42.9729C55.0251 39.7152 52.9369 40.612 52.6582 36.4573C56.7554 33.4805 62.1964 33.9845 64.8107 37.5829C67.4252 41.1813 66.2233 46.5116 62.1259 49.4885Z" fill="#C4EB0C"/>
<path d="M61.6635 66.4918H10.4171C5.60988 66.4918 1.71289 62.5949 1.71289 57.7876H70.3677C70.3676 62.5949 66.4706 66.4918 61.6635 66.4918Z" fill="#F0EFF1"/>
<path d="M18.0982 47.5139C18.0982 46.6125 17.3675 45.8818 16.4661 45.8818C15.5647 45.8818 14.834 46.6125 14.834 47.5139C14.834 48.5599 15.223 49.6666 15.9586 50.7145C16.2761 51.1669 16.7818 51.409 17.2958 51.409C17.6198 51.409 17.947 51.3126 18.232 51.1124C18.9698 50.5946 19.1479 49.5766 18.6299 48.8389C18.2872 48.3504 18.0982 47.8798 18.0982 47.5139Z" fill="#D6DAFB"/>
<path d="M26.9066 52.3919C26.1737 52.2843 25.4084 52.1531 24.567 51.9904C23.6828 51.8193 22.8259 52.3981 22.6549 53.2831C22.4839 54.1682 23.0626 55.0241 23.9476 55.1951C24.8379 55.3671 25.6508 55.5065 26.433 55.6212C26.5133 55.633 26.5929 55.6387 26.6719 55.6387C27.4684 55.6387 28.1656 55.0548 28.2846 54.2432C28.4152 53.3517 27.7983 52.5226 26.9066 52.3919Z" fill="#D6DAFB"/>
<path d="M36.8649 52.1994C36.1213 52.3623 35.3615 52.4913 34.6065 52.5826C33.7117 52.6906 33.0738 53.5036 33.1818 54.3986C33.2818 55.227 33.9859 55.8351 34.8 55.8351C34.8653 55.8351 34.9314 55.8311 34.9979 55.8231C35.8557 55.7195 36.719 55.5731 37.564 55.3879C38.4444 55.1948 39.0019 54.3246 38.8087 53.4442C38.6156 52.5637 37.7467 52.0063 36.8649 52.1994Z" fill="#D6DAFB"/>
<path d="M47.7991 51.0703C48.5643 50.5939 48.7984 49.5874 48.322 48.8223C47.8455 48.0572 46.8394 47.8232 46.0739 48.2996C45.3973 48.7208 44.7157 49.1162 44.0473 49.4755C43.2533 49.9022 42.9556 50.8916 43.3823 51.6856C43.6769 52.2337 44.2395 52.5455 44.8213 52.5455C45.0821 52.5455 45.3466 52.4828 45.5925 52.3507C46.3215 51.9589 47.0641 51.5281 47.7991 51.0703Z" fill="#D6DAFB"/>
<path d="M70.368 56.156H53.1499C55.548 54.5464 57.9542 52.6542 60.381 50.4714C61.2828 51.2053 61.9207 51.1205 62.1256 51.1205C62.4652 51.1205 62.8021 51.0146 63.085 50.8087C67.6451 47.4955 69.1109 41.6198 66.5946 37.3369C67.7812 36.2565 69.5999 34.1897 70.0692 31.3492C70.2161 30.4599 69.6144 29.62 68.7251 29.473C67.8358 29.3258 66.9955 29.9281 66.8489 30.8171C66.541 32.68 65.2734 34.1165 64.447 34.8781C62.6215 33.4488 60.2768 32.7786 57.8687 32.9103L60.6271 28.6009C60.6404 28.5799 60.6534 28.5585 60.6657 28.537C61.5158 27.0646 61.7418 25.3494 61.3016 23.7071C60.8934 22.1839 59.9571 20.8935 58.6488 20.036L67.4358 14.4466C68.1963 13.9628 68.4206 12.9541 67.9369 12.1935C67.4531 11.4329 66.4446 11.2084 65.6838 11.6924L59.7266 15.4819L64.8056 6.29752C65.2418 5.50876 64.9559 4.51567 64.1672 4.07959C63.3791 3.64351 62.3854 3.92912 61.9492 4.71803L56.6408 14.3176L56.5547 6.33366C56.5449 5.43226 55.8097 4.70931 54.9053 4.71929C54.0041 4.72914 53.2813 5.46741 53.291 6.36882L53.4056 17.0047C51.9948 16.2757 50.3865 16.1003 48.842 16.5139C47.1997 16.9539 45.8272 18.0072 44.9772 19.4795C44.967 19.4975 44.9568 19.5158 44.947 19.5341L41.3111 26.4261C40.446 24.4911 39.2949 22.6795 37.8805 21.0572C35.2367 18.0228 31.0174 16.7752 27.1301 17.8801C27.0141 17.9133 26.8953 17.9439 26.7772 17.9753C26.2574 8.6655 20.2651 6.54558 19.542 6.32396C18.2076 5.91151 16.7924 6.04384 15.5573 6.69591C14.322 7.34827 13.4147 8.44275 13.0024 9.77826C12.2402 12.2495 13.4299 14.9215 15.7266 16.0293C15.8681 16.236 16.1848 16.8303 16.3077 18.1276C16.1495 18.0909 15.9917 18.0535 15.8352 18.013C11.8285 16.9833 7.56334 18.335 4.96965 21.4578C1.74822 25.3405 -0.0167551 30.2622 0.000119895 35.3167C0.0245886 42.345 3.48016 48.6331 8.77046 52.5709C9.34393 53.8303 10.1303 55.0373 11.109 56.1564H1.71321C0.811805 56.1564 0.0811197 56.8871 0.0811197 57.7885C0.0811197 63.4879 4.71794 68.1247 10.4173 68.1247H61.6636C67.363 68.1247 71.9998 63.4879 71.9998 57.7885C72.0001 56.8867 71.2693 56.156 70.368 56.156ZM63.4905 38.5422C65.4152 41.1911 64.6688 45.0831 61.8864 47.5859C60.9764 47.0895 60.8159 46.6093 60.4749 45.5885C60.1751 44.6909 59.7645 43.4615 58.7125 42.0137C57.6606 40.5656 56.6184 39.7954 55.8574 39.2328C55.2385 38.7754 54.8546 38.4899 54.6161 37.9925L55.3923 36.7799C58.4063 35.523 61.7599 36.1603 63.4905 38.5422ZM44.6552 27.0828L47.729 28.8575C47.986 29.0059 48.2666 29.0763 48.5433 29.0763C49.1074 29.0763 49.656 28.7837 49.9583 28.2601C50.4091 27.4795 50.1415 26.4814 49.3609 26.0308L46.1791 24.1938L47.818 21.0874C48.2331 20.3828 48.8957 19.8788 49.6869 19.6667C50.4868 19.4523 51.3224 19.5622 52.0398 19.9765L56.7041 22.6693C57.4214 23.0836 57.9345 23.7521 58.149 24.5522C58.3605 25.3415 58.2563 26.1653 57.8556 26.876L53.1451 34.2356C53.142 34.2373 53.1388 34.2387 53.1357 34.2405L48.9172 31.805C48.1364 31.354 47.1383 31.6218 46.6879 32.4024C46.2372 33.183 46.5047 34.1811 47.2853 34.6317L51.389 36.959L50.0833 39.0195C47.9928 40.3425 45.723 41.1048 43.2862 41.306L42.4645 40.8316C42.9437 39.0311 43.1924 37.1559 43.1924 35.2406C43.1924 33.7212 43.0314 32.2175 42.7199 30.7514L44.6552 27.0828ZM35.42 23.2016C38.3271 26.5364 39.9281 30.8118 39.9281 35.2406C39.9281 37.2666 39.6007 39.24 38.974 41.1033C38.1557 40.9663 37.3222 40.7766 36.4728 40.5298C35.2498 40.1744 34.0569 39.6408 32.9045 38.9374C33.602 35.0153 33.4388 31.4515 32.4088 28.2677C31.3109 24.8746 29.4191 22.571 27.752 21.0928C27.8425 21.0682 27.9345 21.045 28.0241 21.0194C30.6993 20.2589 33.6025 21.1154 35.42 23.2016ZM23.2284 21.9071C23.7873 22.1714 27.6488 24.1581 29.3033 29.2722C30.0131 31.4658 30.2098 33.9488 29.9069 36.6796C27.9673 35.1568 25.6602 34.1871 23.2284 33.8632V21.9071ZM16.1216 10.7401C16.2764 10.2382 16.6175 9.82706 17.0815 9.58181C17.5454 9.33684 18.077 9.2872 18.5818 9.44316C19.086 9.5977 23.2807 11.1098 23.537 18.5593C22.241 18.692 20.912 18.7121 19.608 18.6181C19.4678 15.0932 18.2176 13.7709 17.6323 13.3435C17.5208 13.2621 17.3996 13.1952 17.2712 13.1443C16.3265 12.7696 15.8214 11.7134 16.1216 10.7401ZM19.9597 21.9095C19.9611 21.9095 19.9626 21.9097 19.9642 21.9097V33.8183C17.4726 34.0798 15.1775 35.0091 13.2595 36.4224C12.9992 33.8228 13.1969 31.4515 13.8656 29.3458C15.4964 24.21 19.3317 22.2075 19.9597 21.9095ZM3.26458 35.3052C3.25038 31.0143 4.74817 26.8367 7.48163 23.5423C8.87115 21.8692 10.9646 20.9346 13.1357 20.9346C13.7625 20.9346 14.396 21.0126 15.0204 21.1731C15.1066 21.1954 15.1941 21.2148 15.2805 21.2362C13.6536 22.7188 11.8465 24.9825 10.7838 28.2675C9.72164 31.5502 9.58524 35.2384 10.3602 39.3055C8.73221 41.4917 7.74024 44.1758 7.65024 47.0832C4.93295 43.8935 3.28005 39.7765 3.26458 35.3052ZM10.9033 47.5142C10.9033 41.72 15.6172 37.0062 21.4113 37.0062C23.9498 37.0062 26.4006 37.925 28.3121 39.5934C30.5505 41.5471 32.9898 42.9167 35.562 43.664C40.2101 45.0144 46.7653 45.5132 52.9002 41.0487C53.2282 41.3478 53.5739 41.6039 53.9169 41.8576C54.6044 42.3658 55.3154 42.8913 56.0717 43.9321C56.8278 44.9728 57.1081 45.8114 57.3788 46.6223C57.5553 47.1505 57.7337 47.6846 58.0158 48.2087C54.0041 51.7895 50.2494 54.3557 46.7183 56.1559H15.9194C13.0327 54.0695 10.9033 51.0053 10.9033 47.5142ZM61.6639 64.8602H10.4176C7.07945 64.8602 4.27413 62.5356 3.53542 59.4202H68.5461C67.8072 62.5356 65.002 64.8602 61.6639 64.8602Z" fill="#545DA6"/>
</svg>
