<svg width="21" height="18" viewBox="0 0 21 18" fill="none" xmlns="http://www.w3.org/2000/svg">
<path d="M21 1.93323C21 0.864821 20.1371 0 19.0749 0C18.011 0 17.1498 0.864821 17.1498 1.93323C17.1498 3.00164 18.011 3.86646 19.0749 3.86646C20.1388 3.86646 21 3.00164 21 1.93323Z" fill="white"/>
<path d="M16.8482 6.17992C17.1666 6.7015 17.5536 7.26347 18.1517 7.40312L18.1501 7.4048C18.9425 7.58483 19.6563 6.94547 20.2226 6.37677C19.7488 7.01018 19.4091 7.73366 19.0699 8.45621C18.6703 9.30751 18.2713 10.1575 17.6541 10.8574C17.0174 11.5808 16.0088 12.1277 15.1242 11.7609C14.9298 11.6751 14.7606 11.5573 14.6048 11.4176C14.3651 11.8809 14.1417 12.3554 13.9183 12.8298C13.311 14.1194 12.7042 15.4078 11.7733 16.4669C10.8183 17.5505 9.29864 18.3766 7.96331 17.823C7.04851 17.4411 6.48891 16.5359 5.99298 15.6795C5.22803 14.368 4.46468 13.0581 3.70154 11.7485C2.72299 10.0693 1.74476 8.39068 0.763894 6.70991C-0.0671298 5.29154 -0.447456 3.76548 0.81751 2.47162C1.75576 1.50584 3.23854 1.00613 4.53366 1.47388C4.91399 1.6068 5.26416 1.81711 5.57411 2.06613C6.34147 2.68193 6.92285 3.57872 7.459 4.43513C7.92772 5.18371 8.39509 5.93263 8.86247 6.68158C9.43089 7.59244 9.99934 8.50334 10.5703 9.41374C11.0579 10.2012 11.6409 11.0508 12.5406 11.2612C13.122 11.3941 13.6799 11.2309 14.1926 10.9263C14.0536 10.7312 13.9279 10.5276 13.8123 10.3257C13.2985 9.44555 12.7847 8.5641 12.2709 7.68265C11.6287 6.58077 10.9864 5.47889 10.3441 4.37961C9.79458 3.43739 9.53823 2.42282 10.376 1.56641C11.0043 0.927053 11.9827 0.59223 12.8439 0.903498C13.1002 0.996037 13.3248 1.13737 13.5342 1.30057C14.0469 1.71448 14.4272 2.30673 14.7841 2.87542C14.9074 3.07327 15.0306 3.27085 15.1536 3.46821C15.7189 4.37522 16.2813 5.27757 16.8482 6.17992Z" fill="white"/>
</svg>
